PathFileType	4	(X/Y/Z)	/Users/itak/Documents/Research/Walk-IL/dataset/trc/00135_00007.trc
DataRate	CameraRate	NumFrames	NumMarkers	Units	OrigDataRate	OrigDataStartFrame	OrigNumFrames
100.000000	100.000000	4	53	mm	100.000000	469	751
Frame#	Time	RPSI			LPSI			L3			STRN			T10			C7			CLAV			RBAK			LBAK			LSHO			LUPA			LAEL			LAOL			LWTS			LWPS			LFRA			LIFD			LHPS			LHTS			RSHO			RUPA			RAEL			RAOL			RWTS			RWPS			RFRA			RIFD			RHTS			RHPS			RBHD			LFHD			RFHD			LBHD			LHIP			RHIP			RASI			LASI			LKNE			LTHI			LANK			LTIP			LTOE			LMT1			LMT5			LHEE			RKNE			RTHI			RANK			RTIP			RTOE			RMT1			RMT5			RHEE			
		X1	Y1	Z1	X2	Y2	Z2	X3	Y3	Z3	X4	Y4	Z4	X5	Y5	Z5	X6	Y6	Z6	X7	Y7	Z7	X8	Y8	Z8	X9	Y9	Z9	X10	Y10	Z10	X11	Y11	Z11	X12	Y12	Z12	X13	Y13	Z13	X14	Y14	Z14	X15	Y15	Z15	X16	Y16	Z16	X17	Y17	Z17	X18	Y18	Z18	X19	Y19	Z19	X20	Y20	Z20	X21	Y21	Z21	X22	Y22	Z22	X23	Y23	Z23	X24	Y24	Z24	X25	Y25	Z25	X26	Y26	Z26	X27	Y27	Z27	X28	Y28	Z28	X29	Y29	Z29	X30	Y30	Z30	X31	Y31	Z31	X32	Y32	Z32	X33	Y33	Z33	X34	Y34	Z34	X35	Y35	Z35	X36	Y36	Z36	X37	Y37	Z37	X38	Y38	Z38	X39	Y39	Z39	X40	Y40	Z40	X41	Y41	Z41	X42	Y42	Z42	X43	Y43	Z43	X44	Y44	Z44	X45	Y45	Z45	X46	Y46	Z46	X47	Y47	Z47	X48	Y48	Z48	X49	Y49	Z49	X50	Y50	Z50	X51	Y51	Z51	X52	Y52	Z52	X53	Y53	Z53	

470	4.69	604.5634155273438	1096.978637695312	-293.9578857421875	702.5707397460938	1109.739624023438	-384.2359619140625	649.6981201171875	1135.287963867188	-343.0289306640625	790.7468872070312	1333.6396484375	-169.9764556884766	616.5250244140625	1285.547607421875	-355.372802734375	640.0896606445312	1578.583984375	-332.5834045410156	764.9922485351562	1468.440185546875	-196.9035034179688	545.1343994140625	1390.486450195312	-315.267333984375	708.53466796875	1562.449096679688	-407.5121154785156	817.9300537109375	1552.41015625	-394.1349182128906	854.3154907226562	1427.384155273438	-469.9208374023438	881.1988525390625	1213.375366210938	-502.3735046386719	793.8643188476562	1196.880981445312	-497.7347412109375	943.1171875	948.1802368164062	-440.2797241210938	892.4894409179688	928.5336303710938	-511.22265625	899.8682250976562	1097.760131835938	-509.999267578125	938.2789916992188	751.953857421875	-434.5478515625	917.104248046875	852.3040771484375	-503.6221923828125	962.5906982421875	858.8267822265625	-450.6618957519531	548.6991577148438	1551.732177734375	-167.6462249755859	491.8126525878906	1477.157104492188	-139.5694580078125	465.1676330566406	1184.49951171875	-141.7116851806641	540.1380615234375	1182.0693359375	-206.3771209716797	565.696044921875	943.1834716796875	-32.08427810668945	495.5337829589844	925.5870971679688	-75.1846923828125	469.1444091796875	1111.312255859375	-112.8296737670898	594.611328125	750.19482421875	-21.98005676269531	577.5482788085938	835.292724609375	-2.851577758789062	514.4437255859375	826.9546508789062	-40.88999557495117	610.9585571289062	1750.118286132812	-241.5942993164062	807.2489624023438	1798.641723632812	-151.2244873046875	695.679931640625	1784.871337890625	-87.12893676757812	723.8585815429688	1769.32080078125	-312.1186828613281	851.9019775390625	1033.01416015625	-389.1675415039062	597.9703979492188	987.4573364257812	-130.4854431152344	689.6261596679688	1061.757568359375	-95.29622650146484	883.9024047851562	1087.445556640625	-276.4756469726562	971.5381469726562	557.589599609375	-249.6562194824219	941.4471435546875	691.0161743164062	-319.5994262695312	998.402587890625	29.47465705871582	-305.0022277832031	989.4783325195312	297.8960266113281	-323.9988098144531	1046.734741210938	44.90425491333008	-76.64674377441406	982.0142822265625	45.36031723022461	-130.4671478271484	1073.496215820312	31.58066749572754	-203.7782745361328	911.5829467773438	30.83026695251465	-338.5328979492188	604.0538330078125	495.9273071289062	-220.3019714355469	615.95166015625	772.8700561523438	-149.99462890625	334.6642150878906	118.1658401489258	-489.6351013183594	526.3096313476562	389.4650268554688	-278.1924133300781	538.1709594726562	34.82901382446289	-443.775634765625	508.4860534667969	47.97455978393555	-505.79052734375	422.624755859375	43.45545196533203	-424.4828796386719	323.2705688476562	163.3343505859375	-548.6433715820312	
471	4.7	612.9694213867188	1098.190307617188	-290.6255187988281	712.6381225585938	1111.697143554688	-379.1302185058594	659.3551635742188	1137.061767578125	-338.8217163085938	798.1614379882812	1335.285888671875	-163.4381713867188	626.6435546875	1287.469970703125	-351.3093566894531	650.2642822265625	1580.448364257812	-328.4178466796875	773.0075073242188	1470.081787109375	-190.8703308105469	554.7424926757812	1392.625854492188	-312.3504028320312	719.7969970703125	1564.186645507812	-402.2956237792969	828.9022827148438	1554.053344726562	-387.1712646484375	866.62158203125	1429.25390625	-462.5654296875	894.08447265625	1215.159423828125	-494.6184692382812	806.8284301757812	1198.844360351562	-491.6228332519531	954.7142333984375	949.7909545898438	-431.8261108398438	905.3756103515625	930.3441162109375	-503.7002258300781	912.8615112304688	1099.564575195312	-502.0986328125	949.328857421875	753.5475463867188	-426.5418090820312	929.7353515625	854.07177734375	-495.8163757324219	974.1983032226562	860.3963012695312	-441.9901123046875	556.6742553710938	1553.88427734375	-164.6153411865234	498.97607421875	1479.532592773438	-137.5106658935547	470.9995727539062	1187.128173828125	-141.1788330078125	546.8720092773438	1184.728515625	-204.7313995361328	567.5408325195312	944.0662231445312	-31.52927589416504	497.9344177246094	927.4478149414062	-76.44672393798828	474.1242980957031	1113.80419921875	-112.6930236816406	594.72021484375	750.6844482421875	-22.90585899353027	577.9795532226562	835.7219848632812	-3.125595569610596	515.5593872070312	828.2765502929688	-42.71586608886719	619.6367797851562	1751.6943359375	-237.9444732666016	814.4920654296875	1800.587036132812	-144.9727325439453	702.0997924804688	1786.673828125	-82.43287658691406	733.395751953125	1771.040771484375	-306.9729919433594	861.6148071289062	1034.940063476562	-381.9872436523438	604.7227783203125	988.21142578125	-127.3996734619141	695.3864135742188	1063.150390625	-90.94800567626953	892.5390625	1089.082763671875	-268.9089660644531	976.5275268554688	557.0841674804688	-246.9709014892578	948.0814819335938	691.477294921875	-315.8203125	998.67822265625	29.41369438171387	-304.964599609375	992.4407348632812	297.7166137695312	-322.7904968261719	1046.677612304688	43.32525253295898	-76.11971282958984	982.0965576171875	44.91287994384766	-130.3735961914062	1074.025268554688	31.35150909423828	-203.7540435791016	912.1018676757812	31.00086784362793	-338.7586364746094	618.0592041015625	495.2168579101562	-208.1970367431641	625.2523803710938	773.4044189453125	-143.7053375244141	341.601318359375	127.6418914794922	-484.690673828125	539.287109375	390.5086364746094	-267.3434753417969	538.7954711914062	34.30431365966797	-441.9933166503906	511.8325805664062	50.35818862915039	-503.7744445800781	424.9453125	44.92766571044922	-423.5234375	333.1475219726562	175.5518798828125	-541.77001953125	
472	4.71	621.0118408203125	1099.246948242188	-287.3990173339844	722.4134521484375	1113.5361328125	-374.0433044433594	668.7009887695312	1138.796997070312	-334.6285705566406	805.226806640625	1336.793823242188	-156.8647155761719	636.6038818359375	1289.309448242188	-347.3470764160156	660.2949829101562	1582.223876953125	-324.1979675292969	780.7382202148438	1471.597412109375	-184.7752227783203	564.1857299804688	1394.699584960938	-309.5649719238281	730.9784545898438	1565.861206054688	-396.9747619628906	839.7474365234375	1555.598022460938	-380.0310668945312	878.839599609375	1431.037231445312	-454.9964599609375	906.9614868164062	1216.879028320312	-486.6925659179688	819.7958984375	1200.718627929688	-485.4345703125	966.30517578125	951.3602294921875	-423.1374816894531	918.3533935546875	932.061279296875	-495.9590148925781	925.8750610351562	1101.2958984375	-493.9974670410156	960.4676513671875	755.1028442382812	-418.258544921875	942.4788208007812	855.7612915039062	-487.7571716308594	985.8410034179688	861.9232788085938	-433.039306640625	564.403076171875	1555.920776367188	-161.6619110107422	505.8213806152344	1481.7900390625	-135.6117401123047	476.6058959960938	1189.612670898438	-140.5820617675781	553.1813354492188	1187.234130859375	-203.1452026367188	569.5925903320312	944.9926147460938	-31.07224655151367	500.4248352050781	929.28125	-77.50212097167969	479.0022888183594	1116.1865234375	-112.4578552246094	595.3402709960938	751.2867431640625	-23.98669624328613	578.828857421875	836.2372436523438	-3.558276176452637	517.0240478515625	829.6107788085938	-44.37374496459961	628.175048828125	1753.183227539062	-234.2410583496094	821.58740234375	1802.444946289062	-138.6846771240234	708.3943481445312	1788.398681640625	-77.70933532714844	742.8053588867188	1772.65966796875	-301.7551574707031	871.0206298828125	1036.708251953125	-374.8149108886719	611.2139892578125	988.837890625	-124.3177490234375	700.8406372070312	1064.438842773438	-86.67034912109375	900.8941650390625	1090.593383789062	-261.3419799804688	981.2107543945312	556.4928588867188	-244.7574310302734	954.2738647460938	691.769287109375	-312.4257202148438	998.8086547851562	29.44692802429199	-304.8677368164062	994.8377685546875	297.4303894042969	-321.9065856933594	1046.631103515625	41.90528106689453	-75.51064300537109	982.1535034179688	44.52391815185547	-130.2013854980469	1074.475341796875	31.19601440429688	-203.7145843505859	912.3960571289062	31.15447807312012	-338.8195495605469	632.4170532226562	494.6659240722656	-195.7249908447266	634.4925537109375	773.927001953125	-137.2372894287109	349.6146545410156	137.6018218994141	-479.2592468261719	552.9400024414062	391.5640563964844	-255.9859924316406	539.826171875	33.6427116394043	-439.3731994628906	515.9450073242188	53.07075500488281	-500.9284057617188	427.7736511230469	47.24478149414062	-422.0435180664062	344.277587890625	187.9503173828125	-534.3399658203125	
473	4.72	628.6490478515625	1100.129638671875	-284.2347717285156	731.8357543945312	1115.21142578125	-368.9695129394531	677.6033325195312	1140.48876953125	-330.4361267089844	811.9246826171875	1338.151489257812	-150.2875671386719	646.3392333984375	1291.0654296875	-343.5527954101562	670.1712646484375	1583.903930664062	-319.9254455566406	788.16943359375	1472.98681640625	-178.6366729736328	573.442626953125	1396.69287109375	-306.9129333496094	742.0601806640625	1567.469482421875	-391.5553894042969	850.4506225585938	1557.034545898438	-372.7249755859375	890.9495849609375	1432.711669921875	-447.2000122070312	919.8218383789062	1218.529541015625	-478.5828857421875	832.7523803710938	1202.467895507812	-479.1573181152344	977.8784790039062	952.8715209960938	-414.2087707519531	931.4246826171875	933.6742553710938	-487.9941101074219	938.9030151367188	1102.94482421875	-485.6834716796875	971.710205078125	756.5994262695312	-409.712646484375	955.3404541015625	857.3683471679688	-479.4423522949219	997.5199584960938	863.3997192382812	-423.814453125	571.8613891601562	1557.832885742188	-158.8063812255859	512.357177734375	1483.912231445312	-133.8783721923828	482.0332641601562	1191.937255859375	-139.9437255859375	559.138916015625	1189.568603515625	-201.6216430664062	571.865966796875	945.9475708007812	-30.69352912902832	503.0279846191406	931.0722045898438	-78.32715606689453	483.7791442871094	1118.436889648438	-112.1550750732422	596.4439086914062	751.9793701171875	-25.13676071166992	580.1043701171875	836.827880859375	-4.083174228668213	518.8070678710938	830.9447021484375	-45.82463455200195	636.5824584960938	1754.574096679688	-230.4851379394531	828.53515625	1804.205688476562	-132.3503112792969	714.5555419921875	1790.035278320312	-72.95565795898438	752.092041015625	1774.17041015625	-296.4610900878906	880.0869750976562	1038.306640625	-367.7152099609375	617.4745483398438	989.3583984375	-121.1716537475586	706.0449829101562	1065.632690429688	-82.44229888916016	908.9503784179688	1091.971923828125	-253.827880859375	985.6513061523438	555.8610229492188	-242.8358459472656	960.1280517578125	691.9638061523438	-309.2176513671875	998.8458862304688	29.53833961486816	-304.7346496582031	996.8701171875	297.08642578125	-321.2381896972656	1046.605590820312	40.63349533081055	-74.84296417236328	982.2147827148438	44.18254089355469	-129.9765167236328	1074.880615234375	31.07245826721191	-203.6741027832031	912.5301513671875	31.31549644470215	-338.7590026855469	647.0396118164062	494.3553771972656	-182.9782867431641	643.693603515625	774.4794311523438	-130.58349609375	358.7375793457031	147.9188690185547	-473.4165649414062	567.1583251953125	392.6868286132812	-244.2508239746094	541.3975219726562	32.95189666748047	-435.6832580566406	520.909423828125	56.1007194519043	-497.0161437988281	431.2248840332031	50.55118560791016	-419.8261413574219	356.6607666015625	200.3224487304688	-526.5169067382812	
